<svg xmlns="http://www.w3.org/2000/svg" xmlns:xlink="http://www.w3.org/1999/xlink" xml:space="preserve" id="Layer_1" x="0" y="0" version="1.1" viewBox="0 0 2500 2500"><style>.st0{fill:none}</style><g id="Layer_x0020_1"><g id="_2090755387392"><path d="M1250 0c690 0 1250 560 1250 1250s-560 1250-1250 1250S0 1940 0 1250 560 0 1250 0z" class="st0"/><defs><path id="SVGID_1_" d="M1250 0c690 0 1250 560 1250 1250s-560 1250-1250 1250S0 1940 0 1250 560 0 1250 0z"/></defs><clipPath id="SVGID_00000160188587584686621390000014387546349215543718_"><use xlink:href="#SVGID_1_" overflow="visible"/></clipPath><g clip-path="url(#SVGID_00000160188587584686621390000014387546349215543718_)"><path id="_1" fill="none" stroke="#000" stroke-miterlimit="22.926" d="m0 0 2500 2500m0-2500L0 2500"/></g><linearGradient id="SVGID_00000165228026751743658530000016517460302465612473_" x1="1250" x2="1250" y1="-1656" y2="844" gradientTransform="translate(0 1656)" gradientUnits="userSpaceOnUse"><stop offset="0" stop-color="#f89791"/><stop offset="1" stop-color="#f7c882"/></linearGradient><path fill="url(#SVGID_00000165228026751743658530000016517460302465612473_)" d="M1250 0c690 0 1250 560 1250 1250s-560 1250-1250 1250S0 1940 0 1250 560 0 1250 0z"/><defs><path id="SVGID_00000163036181998440552620000014268914133738242734_" d="m1249 1472-557-318-15 23c-171 263-133 607 92 828 265 260 695 260 960 0 225-221 263-565 92-828l-15-23-557 318z"/></defs><clipPath id="SVGID_00000129916768327263564950000008320770272134965387_"><use xlink:href="#SVGID_00000163036181998440552620000014268914133738242734_" overflow="visible"/></clipPath><g clip-path="url(#SVGID_00000129916768327263564950000008320770272134965387_)"><radialGradient id="SVGID_00000041998727016348714760000012056648825883767482_" cx="4255.891" cy="1058.028" r="594" gradientTransform="matrix(-.01243 -1.5265 1.8194 -.02652 -624.372 8621.436)" gradientUnits="userSpaceOnUse"><stop offset="0" stop-color="#c5c6ab"/><stop offset="1" stop-color="#7985ab"/></radialGradient><circle cx="1249" cy="1541" r="679" fill="url(#SVGID_00000041998727016348714760000012056648825883767482_)" fill-rule="evenodd" clip-rule="evenodd"/></g><path d="m1249 1472-557-318-15 23c-171 263-133 607 92 828 265 260 695 260 960 0 225-221 263-565 92-828l-15-23-557 318z" class="st0"/><radialGradient id="SVGID_00000126316947920773211430000009595244327353372847_" cx="1249" cy="-620" r="24" gradientTransform="translate(0 1656)" gradientUnits="userSpaceOnUse"><stop offset="0" stop-color="#06f" stop-opacity="0"/><stop offset="1" stop-color="#00c2ff" stop-opacity=".4"/></radialGradient><path fill="url(#SVGID_00000126316947920773211430000009595244327353372847_)" d="m1249 762-480 274 480 274 480-274z"/><radialGradient id="SVGID_00000040537778241883717370000000066377911240089534_" cx="1248.5" cy="-503.5" r="28.008" gradientTransform="translate(0 1656)" gradientUnits="userSpaceOnUse"><stop offset="0" stop-color="#aee6f9" stop-opacity=".859"/><stop offset="1" stop-color="#c8d6dc"/></radialGradient><path fill="url(#SVGID_00000040537778241883717370000000066377911240089534_)" d="m1250 833-558 321 557 318 556-318z"/><linearGradient id="SVGID_00000103958340582352094870000003712943117012806833_" x1="1009" x2="1009" y1="-1406" y2="-406" gradientTransform="translate(0 1656)" gradientUnits="userSpaceOnUse"><stop offset="0" stop-color="#77d4ff"/><stop offset="1" stop-color="#93d6f2" stop-opacity=".898"/></linearGradient><path fill="url(#SVGID_00000103958340582352094870000003712943117012806833_)" d="m1249 300-480 736 480 274z"/><linearGradient id="SVGID_00000027599097175920634010000007977452326395958914_" x1="1489" x2="1489" y1="-1406" y2="-406" gradientTransform="translate(0 1656)" gradientUnits="userSpaceOnUse"><stop offset="0" stop-color="#506aac"/><stop offset="1" stop-color="#96cfef" stop-opacity=".82"/></linearGradient><path fill="url(#SVGID_00000027599097175920634010000007977452326395958914_)" d="m1249 1310 480-274-480-736z"/></g></g></svg>