<svg xmlns="http://www.w3.org/2000/svg" width="76" height="48" fill="none"><path fill="#0A6E5C" d="m51.665 28.246-9.088 9.122c-.77.773-.77 2.029.002 2.8l6.944 6.956a3.079 3.079 0 0 0 4.303 0l21.286-21.01a2.983 2.983 0 0 0 0-4.247L53.826.877a3.079 3.079 0 0 0-4.303 0L42.578 7.83a1.986 1.986 0 0 0-.001 2.8l9.088 9.123a5.966 5.966 0 0 1 0 8.492z"/><path fill="#21BF73" d="m24.335 28.246 9.088 9.122c.77.773.77 2.029-.002 2.8l-6.944 6.956a3.079 3.079 0 0 1-4.303 0L.888 26.114a2.983 2.983 0 0 1 0-4.247L22.174.877a3.079 3.079 0 0 1 4.303 0l6.945 6.954c.77.772.77 2.028.001 2.8l-9.088 9.123a5.966 5.966 0 0 0 0 8.492z"/><path fill="#21BF73" d="M26.719 25.736a2.455 2.455 0 0 1 0-3.472l9.545-9.545a2.455 2.455 0 0 1 3.472 0l9.545 9.545a2.455 2.455 0 0 1 0 3.472l-9.545 9.545a2.455 2.455 0 0 1-3.472 0l-9.545-9.545z"/></svg>