<?xml version="1.0" encoding="utf-8"?>
<!-- Generator: Adobe Illustrator 29.7.1, SVG Export Plug-In . SVG Version: 9.03 Build 0)  -->
<svg version="1.0" id="Layer_1" xmlns="http://www.w3.org/2000/svg" xmlns:xlink="http://www.w3.org/1999/xlink" x="0px" y="0px"
	 viewBox="60 0 2263.2 602.4" style="enable-background:new 60 0 2263.2 602.4;" xml:space="preserve">
<style type="text/css">
	.st0{clip-path:url(#SVGID_00000109722005938057603460000017161397913431942016_);}
	.st1{clip-path:url(#SVGID_00000033354650327406304730000013824633485466998410_);}
	.st2{clip-path:url(#SVGID_00000031192185215663809270000004145310356006487691_);}
	.st3{fill:#FFFFFF;}
	.st4{clip-path:url(#SVGID_00000039853480219997696290000008544839560860905624_);}
	.st5{clip-path:url(#SVGID_00000008858849445994762920000008486880858726409630_);}
	.st6{clip-path:url(#SVGID_00000145045061524382222070000009481340150096741566_);}
	.st7{font-family:'ComicSansMS';}
	.st8{font-size:421.5182px;}
</style>
<g>
	<defs>
		<rect id="SVGID_1_" x="121" y="137" width="363" height="453"/>
	</defs>
	<clipPath id="SVGID_00000134969261953784735830000007031440361862546363_">
		<use xlink:href="#SVGID_1_"  style="overflow:visible;"/>
	</clipPath>
	<g style="clip-path:url(#SVGID_00000134969261953784735830000007031440361862546363_);">
		<g>
			<defs>
				
					<rect id="SVGID_00000178918279205984471420000014872806369102829494_" x="15.7" y="108.46" transform="matrix(0.7071 -0.7071 0.7071 0.7071 -139.4974 263.3947)" width="465" height="383.25"/>
			</defs>
			<clipPath id="SVGID_00000130627431555212031390000014986835276880427911_">
				<use xlink:href="#SVGID_00000178918279205984471420000014872806369102829494_"  style="overflow:visible;"/>
			</clipPath>
			<g style="clip-path:url(#SVGID_00000130627431555212031390000014986835276880427911_);">
				<g>
					<defs>
						
							<rect id="SVGID_00000067225775911639581820000007650973917524609680_" x="15.88" y="108.28" transform="matrix(0.7071 -0.7071 0.7071 0.7071 -139.3161 263.4709)" width="465" height="383.25"/>
					</defs>
					<clipPath id="SVGID_00000150087939122800378730000002592377814517903509_">
						<use xlink:href="#SVGID_00000067225775911639581820000007650973917524609680_"  style="overflow:visible;"/>
					</clipPath>
					<g style="clip-path:url(#SVGID_00000150087939122800378730000002592377814517903509_);">
						<path class="st3" d="M126.32,336.2c-8.23-12.67-6.78-31.52,5.55-43.86c39.12-39.07,78.09-78.25,117.39-117.13
							c6.01-5.94,13-11.14,20.22-15.55c23.43-14.34,48.92-21.85,76.58-21.92c54.21-0.14,102.34,33.36,124.5,80.03
							c11.57,24.39,15.63,49.91,12.26,76.63c-3.52,27.82-13.37,53.09-32.7,73.75c-16.73,17.88-34.36,34.9-51.6,52.29L229.48,589.46
							l-20.84-77.8c177.96-178.11,188.41-188.13,196.03-199.9c21.35-33.05,5.81-80.88-30.07-96.99
							c-29.11-13.06-59.68-7.24-82.8,15.84c-37.36,37.31-74.69,74.66-112.09,111.93c-2.51,2.51-5.28,5.12-8.42,6.59
							C154.85,356.72,136.31,351.56,126.32,336.2L126.32,336.2z"/>
					</g>
				</g>
			</g>
		</g>
	</g>
</g>
<g>
	<defs>
		<rect id="SVGID_00000160880838263538647730000007199894336408723856_" x="12" y="10" width="364" height="453"/>
	</defs>
	<clipPath id="SVGID_00000083070293368724237770000007428316656303039423_">
		<use xlink:href="#SVGID_00000160880838263538647730000007199894336408723856_"  style="overflow:visible;"/>
	</clipPath>
	<g style="clip-path:url(#SVGID_00000083070293368724237770000007428316656303039423_);">
		<g>
			<defs>
				
					<rect id="SVGID_00000011723972860199456190000017631030326260326302_" x="15.7" y="108.46" transform="matrix(0.7071 -0.7071 0.7071 0.7071 -139.4974 263.3947)" width="465" height="383.25"/>
			</defs>
			<clipPath id="SVGID_00000164483014513253852410000012587042567275901573_">
				<use xlink:href="#SVGID_00000011723972860199456190000017631030326260326302_"  style="overflow:visible;"/>
			</clipPath>
			<g style="clip-path:url(#SVGID_00000164483014513253852410000012587042567275901573_);">
				<g>
					<defs>
						
							<rect id="SVGID_00000176008064807250708360000013756783487093439903_" x="15.88" y="108.28" transform="matrix(0.7071 -0.7071 0.7071 0.7071 -139.3161 263.4709)" width="465" height="383.25"/>
					</defs>
					<clipPath id="SVGID_00000096745745936931818600000016988981441797459100_">
						<use xlink:href="#SVGID_00000176008064807250708360000013756783487093439903_"  style="overflow:visible;"/>
					</clipPath>
					<g style="clip-path:url(#SVGID_00000096745745936931818600000016988981441797459100_);">
						<path class="st3" d="M370.36,263.89c8.23,12.67,6.78,31.52-5.56,43.86c-39.11,39.07-78.09,78.25-117.38,117.13
							c-6.02,5.94-13,11.14-20.22,15.56c-23.43,14.34-48.91,21.85-76.57,21.91c-54.2,0.13-102.34-33.36-124.48-80.04
							c-11.57-24.39-15.64-49.91-12.26-76.62c3.52-27.83,13.36-53.09,32.69-73.75c16.73-17.88,34.36-34.9,51.6-52.29L267.2,10.62
							l20.85,77.8C110.09,266.53,99.64,276.54,92.02,288.32c-21.35,33.05-5.81,80.88,30.07,96.99c29.11,13.06,59.68,7.24,82.8-15.84
							c37.36-37.3,74.69-74.66,112.08-111.93c2.51-2.51,5.27-5.12,8.42-6.59C341.82,243.36,360.36,248.52,370.36,263.89
							L370.36,263.89z"/>
					</g>
				</g>
			</g>
		</g>
	</g>
</g>
<text transform="matrix(0.9217 0 0 1 523.3999 470.8818)" class="st3 st7 st8">SaturnAI</text>
</svg>
